<svg xmlns="http://www.w3.org/2000/svg" viewBox="0 0 320 320">
  <defs>
    <linearGradient id="fur2" x1="109" x2="218" y1="45" y2="228" gradientUnits="userSpaceOnUse">
      <stop offset="0" stop-color="#fff6ea"/>
      <stop offset="1" stop-color="#ecd3bc"/>
    </linearGradient>
    <linearGradient id="ear2" x1="126" x2="201" y1="36" y2="122" gradientUnits="userSpaceOnUse">
      <stop offset="0" stop-color="#ffcfb2"/>
      <stop offset="1" stop-color="#ef9b7e"/>
    </linearGradient>
    <radialGradient id="halo2" cx="160" cy="156" r="118" gradientUnits="userSpaceOnUse">
      <stop offset="0" stop-color="#ffcb7c" stop-opacity="0.46"/>
      <stop offset="1" stop-color="#ffcb7c" stop-opacity="0"/>
    </radialGradient>
  </defs>
  <ellipse cx="160" cy="244" rx="90" ry="25" fill="#040605" opacity="0.3"/>
  <circle cx="160" cy="154" r="112" fill="url(#halo2)"/>
  <g transform="translate(0 -2)">
    <ellipse cx="126" cy="88" rx="21" ry="64" transform="rotate(-8 126 88)" fill="url(#fur2)"/>
    <ellipse cx="194" cy="88" rx="21" ry="64" transform="rotate(8 194 88)" fill="url(#fur2)"/>
    <ellipse cx="129" cy="91" rx="10" ry="42" transform="rotate(-8 129 91)" fill="url(#ear2)"/>
    <ellipse cx="191" cy="91" rx="10" ry="42" transform="rotate(8 191 91)" fill="url(#ear2)"/>
    <circle cx="160" cy="158" r="60" fill="url(#fur2)"/>
    <ellipse cx="118" cy="202" rx="28" ry="25" fill="url(#fur2)"/>
    <ellipse cx="202" cy="202" rx="28" ry="25" fill="url(#fur2)"/>
    <ellipse cx="160" cy="217" rx="56" ry="42" fill="url(#fur2)"/>
    <ellipse cx="160" cy="191" rx="36" ry="28" fill="#fff9f0"/>
    <ellipse cx="142" cy="154" rx="5" ry="7" fill="#342720"/>
    <ellipse cx="178" cy="154" rx="5" ry="7" fill="#342720"/>
    <circle cx="129" cy="176" r="7" fill="#ffc7bb" opacity="0.6"/>
    <circle cx="191" cy="176" r="7" fill="#ffc7bb" opacity="0.6"/>
    <path d="M160 164c-5 0-10 4-10 9 0 2 1 4 3 6l7 6 7-6c2-2 3-4 3-6 0-5-5-9-10-9Z" fill="#e47a58"/>
    <path d="M160 183v8" fill="none" stroke="#43342d" stroke-linecap="round" stroke-width="4"/>
    <path d="M160 191c-8 0-14-3-19-9" fill="none" stroke="#43342d" stroke-linecap="round" stroke-width="4"/>
    <path d="M160 191c8 0 14-3 19-9" fill="none" stroke="#43342d" stroke-linecap="round" stroke-width="4"/>
    <path d="M132 179c-15-3-25-2-34 1" fill="none" stroke="#5a453c" stroke-linecap="round" stroke-width="3.5"/>
    <path d="M131 186c-15 0-25 3-34 8" fill="none" stroke="#5a453c" stroke-linecap="round" stroke-width="3.5"/>
    <path d="M188 179c15-3 25-2 34 1" fill="none" stroke="#5a453c" stroke-linecap="round" stroke-width="3.5"/>
    <path d="M189 186c15 0 25 3 34 8" fill="none" stroke="#5a453c" stroke-linecap="round" stroke-width="3.5"/>
  </g>
  <circle cx="90" cy="98" r="4.5" fill="#ffe2af" opacity="0.92"/>
  <circle cx="100" cy="88" r="2.5" fill="#ffe2af" opacity="0.78"/>
  <circle cx="232" cy="116" r="4.5" fill="#ffc68a" opacity="0.82"/>
  <circle cx="242" cy="106" r="2.5" fill="#ffc68a" opacity="0.74"/>
</svg>
