<svg xmlns="http://www.w3.org/2000/svg" viewBox="0 0 320 320">
  <defs>
    <linearGradient id="fur1" x1="109" x2="218" y1="53" y2="236" gradientUnits="userSpaceOnUse">
      <stop offset="0" stop-color="#fff6ea"/>
      <stop offset="1" stop-color="#ecd3bc"/>
    </linearGradient>
    <linearGradient id="ear1" x1="126" x2="201" y1="40" y2="128" gradientUnits="userSpaceOnUse">
      <stop offset="0" stop-color="#ffcfb2"/>
      <stop offset="1" stop-color="#ef9b7e"/>
    </linearGradient>
    <radialGradient id="halo1" cx="160" cy="168" r="118" gradientUnits="userSpaceOnUse">
      <stop offset="0" stop-color="#ffcb7c" stop-opacity="0.42"/>
      <stop offset="1" stop-color="#ffcb7c" stop-opacity="0"/>
    </radialGradient>
  </defs>
  <ellipse cx="160" cy="244" rx="87" ry="24" fill="#040605" opacity="0.32"/>
  <circle cx="160" cy="161" r="110" fill="url(#halo1)"/>
  <g transform="translate(0 6)">
    <ellipse cx="124" cy="95" rx="22" ry="62" transform="rotate(-16 124 95)" fill="url(#fur1)"/>
    <ellipse cx="196" cy="91" rx="22" ry="63" transform="rotate(14 196 91)" fill="url(#fur1)"/>
    <ellipse cx="128" cy="99" rx="10" ry="41" transform="rotate(-16 128 99)" fill="url(#ear1)"/>
    <ellipse cx="192" cy="95" rx="10" ry="41" transform="rotate(14 192 95)" fill="url(#ear1)"/>
    <circle cx="160" cy="164" r="60" fill="url(#fur1)"/>
    <ellipse cx="118" cy="208" rx="28" ry="25" fill="url(#fur1)"/>
    <ellipse cx="202" cy="208" rx="28" ry="25" fill="url(#fur1)"/>
    <ellipse cx="160" cy="223" rx="56" ry="42" fill="url(#fur1)"/>
    <ellipse cx="160" cy="197" rx="36" ry="28" fill="#fff9f0"/>
    <ellipse cx="141" cy="160" rx="5" ry="7" fill="#342720"/>
    <ellipse cx="179" cy="160" rx="5" ry="7" fill="#342720"/>
    <circle cx="129" cy="181" r="7" fill="#ffc7bb" opacity="0.6"/>
    <circle cx="191" cy="181" r="7" fill="#ffc7bb" opacity="0.6"/>
    <path d="M160 170c-5 0-10 4-10 9 0 2 1 4 3 6l7 6 7-6c2-2 3-4 3-6 0-5-5-9-10-9Z" fill="#e47a58"/>
    <path d="M160 189v8" fill="none" stroke="#43342d" stroke-linecap="round" stroke-width="4"/>
    <path d="M160 197c-8 0-14-3-19-9" fill="none" stroke="#43342d" stroke-linecap="round" stroke-width="4"/>
    <path d="M160 197c8 0 14-3 19-9" fill="none" stroke="#43342d" stroke-linecap="round" stroke-width="4"/>
    <path d="M132 185c-15-3-25-3-34-1" fill="none" stroke="#5a453c" stroke-linecap="round" stroke-width="3.5"/>
    <path d="M131 192c-15 0-25 2-34 6" fill="none" stroke="#5a453c" stroke-linecap="round" stroke-width="3.5"/>
    <path d="M188 185c15-3 25-3 34-1" fill="none" stroke="#5a453c" stroke-linecap="round" stroke-width="3.5"/>
    <path d="M189 192c15 0 25 2 34 6" fill="none" stroke="#5a453c" stroke-linecap="round" stroke-width="3.5"/>
  </g>
  <circle cx="87" cy="104" r="5" fill="#ffe2af" opacity="0.9"/>
  <circle cx="97" cy="94" r="2.5" fill="#ffe2af" opacity="0.8"/>
  <circle cx="236" cy="122" r="4" fill="#ffc68a" opacity="0.8"/>
  <circle cx="246" cy="112" r="2.5" fill="#ffc68a" opacity="0.75"/>
</svg>
