<svg xmlns="http://www.w3.org/2000/svg" viewBox="0 0 320 320">
  <defs>
    <linearGradient id="fur3" x1="107" x2="219" y1="51" y2="234" gradientUnits="userSpaceOnUse">
      <stop offset="0" stop-color="#fff6ea"/>
      <stop offset="1" stop-color="#ecd3bc"/>
    </linearGradient>
    <linearGradient id="ear3" x1="124" x2="205" y1="42" y2="126" gradientUnits="userSpaceOnUse">
      <stop offset="0" stop-color="#ffcfb2"/>
      <stop offset="1" stop-color="#ef9b7e"/>
    </linearGradient>
    <radialGradient id="halo3" cx="160" cy="164" r="118" gradientUnits="userSpaceOnUse">
      <stop offset="0" stop-color="#ffcb7c" stop-opacity="0.44"/>
      <stop offset="1" stop-color="#ffcb7c" stop-opacity="0"/>
    </radialGradient>
  </defs>
  <ellipse cx="160" cy="244" rx="88" ry="24" fill="#040605" opacity="0.32"/>
  <circle cx="160" cy="160" r="111" fill="url(#halo3)"/>
  <g transform="translate(0 4)">
    <ellipse cx="121" cy="93" rx="22" ry="63" transform="rotate(-18 121 93)" fill="url(#fur3)"/>
    <ellipse cx="199" cy="93" rx="22" ry="63" transform="rotate(18 199 93)" fill="url(#fur3)"/>
    <ellipse cx="124" cy="97" rx="10" ry="41" transform="rotate(-18 124 97)" fill="url(#ear3)"/>
    <ellipse cx="196" cy="97" rx="10" ry="41" transform="rotate(18 196 97)" fill="url(#ear3)"/>
    <circle cx="160" cy="162" r="60" fill="url(#fur3)"/>
    <ellipse cx="118" cy="206" rx="28" ry="25" fill="url(#fur3)"/>
    <ellipse cx="202" cy="206" rx="28" ry="25" fill="url(#fur3)"/>
    <ellipse cx="160" cy="221" rx="56" ry="42" fill="url(#fur3)"/>
    <ellipse cx="160" cy="195" rx="36" ry="28" fill="#fff9f0"/>
    <circle cx="129" cy="180" r="7" fill="#ffc7bb" opacity="0.6"/>
    <circle cx="191" cy="180" r="7" fill="#ffc7bb" opacity="0.6"/>
    <path d="M137 160c4 3 8 3 12 0" fill="none" stroke="#342720" stroke-linecap="round" stroke-width="4"/>
    <path d="M171 160c4 3 8 3 12 0" fill="none" stroke="#342720" stroke-linecap="round" stroke-width="4"/>
    <path d="M160 170c-5 0-10 4-10 9 0 2 1 4 3 6l7 6 7-6c2-2 3-4 3-6 0-5-5-9-10-9Z" fill="#e47a58"/>
    <path d="M160 189v8" fill="none" stroke="#43342d" stroke-linecap="round" stroke-width="4"/>
    <path d="M160 197c-9 0-15-4-20-11" fill="none" stroke="#43342d" stroke-linecap="round" stroke-width="4"/>
    <path d="M160 197c9 0 15-4 20-11" fill="none" stroke="#43342d" stroke-linecap="round" stroke-width="4"/>
    <path d="M132 185c-16-2-26-1-35 2" fill="none" stroke="#5a453c" stroke-linecap="round" stroke-width="3.5"/>
    <path d="M131 192c-15 1-24 4-33 9" fill="none" stroke="#5a453c" stroke-linecap="round" stroke-width="3.5"/>
    <path d="M188 185c16-2 26-1 35 2" fill="none" stroke="#5a453c" stroke-linecap="round" stroke-width="3.5"/>
    <path d="M189 192c15 1 24 4 33 9" fill="none" stroke="#5a453c" stroke-linecap="round" stroke-width="3.5"/>
  </g>
  <circle cx="87" cy="107" r="4.5" fill="#ffe2af" opacity="0.85"/>
  <circle cx="98" cy="96" r="2.5" fill="#ffe2af" opacity="0.78"/>
  <circle cx="238" cy="117" r="4.5" fill="#ffc68a" opacity="0.84"/>
  <circle cx="248" cy="106" r="2.5" fill="#ffc68a" opacity="0.72"/>
</svg>
