<svg xmlns="http://www.w3.org/2000/svg" viewBox="0 0 320 320">
  <defs>
    <linearGradient id="fur4" x1="109" x2="218" y1="55" y2="238" gradientUnits="userSpaceOnUse">
      <stop offset="0" stop-color="#fff6ea"/>
      <stop offset="1" stop-color="#ecd3bc"/>
    </linearGradient>
    <linearGradient id="ear4" x1="126" x2="201" y1="46" y2="130" gradientUnits="userSpaceOnUse">
      <stop offset="0" stop-color="#ffcfb2"/>
      <stop offset="1" stop-color="#ef9b7e"/>
    </linearGradient>
    <radialGradient id="halo4" cx="160" cy="170" r="118" gradientUnits="userSpaceOnUse">
      <stop offset="0" stop-color="#ffcb7c" stop-opacity="0.4"/>
      <stop offset="1" stop-color="#ffcb7c" stop-opacity="0"/>
    </radialGradient>
  </defs>
  <ellipse cx="160" cy="246" rx="88" ry="24" fill="#040605" opacity="0.32"/>
  <circle cx="160" cy="166" r="111" fill="url(#halo4)"/>
  <g transform="translate(0 10)">
    <ellipse cx="126" cy="98" rx="21" ry="62" transform="rotate(-10 126 98)" fill="url(#fur4)"/>
    <ellipse cx="194" cy="94" rx="22" ry="63" transform="rotate(18 194 94)" fill="url(#fur4)"/>
    <ellipse cx="129" cy="102" rx="10" ry="41" transform="rotate(-10 129 102)" fill="url(#ear4)"/>
    <ellipse cx="191" cy="98" rx="10" ry="41" transform="rotate(18 191 98)" fill="url(#ear4)"/>
    <circle cx="160" cy="166" r="60" fill="url(#fur4)"/>
    <ellipse cx="118" cy="210" rx="28" ry="25" fill="url(#fur4)"/>
    <ellipse cx="202" cy="210" rx="28" ry="25" fill="url(#fur4)"/>
    <ellipse cx="160" cy="225" rx="56" ry="42" fill="url(#fur4)"/>
    <ellipse cx="160" cy="199" rx="36" ry="28" fill="#fff9f0"/>
    <ellipse cx="142" cy="162" rx="5" ry="7" fill="#342720"/>
    <ellipse cx="178" cy="162" rx="5" ry="7" fill="#342720"/>
    <circle cx="129" cy="184" r="7" fill="#ffc7bb" opacity="0.6"/>
    <circle cx="191" cy="184" r="7" fill="#ffc7bb" opacity="0.6"/>
    <path d="M160 172c-5 0-10 4-10 9 0 2 1 4 3 6l7 6 7-6c2-2 3-4 3-6 0-5-5-9-10-9Z" fill="#e47a58"/>
    <path d="M160 191v8" fill="none" stroke="#43342d" stroke-linecap="round" stroke-width="4"/>
    <path d="M160 199c-8 0-14-3-19-9" fill="none" stroke="#43342d" stroke-linecap="round" stroke-width="4"/>
    <path d="M160 199c8 0 14-3 19-9" fill="none" stroke="#43342d" stroke-linecap="round" stroke-width="4"/>
    <path d="M132 187c-15-3-24-2-33 0" fill="none" stroke="#5a453c" stroke-linecap="round" stroke-width="3.5"/>
    <path d="M131 194c-14 1-24 4-33 8" fill="none" stroke="#5a453c" stroke-linecap="round" stroke-width="3.5"/>
    <path d="M188 187c15-3 24-2 33 0" fill="none" stroke="#5a453c" stroke-linecap="round" stroke-width="3.5"/>
    <path d="M189 194c14 1 24 4 33 8" fill="none" stroke="#5a453c" stroke-linecap="round" stroke-width="3.5"/>
  </g>
  <circle cx="85" cy="112" r="4.5" fill="#ffe2af" opacity="0.86"/>
  <circle cx="95" cy="101" r="2.5" fill="#ffe2af" opacity="0.76"/>
  <circle cx="235" cy="128" r="4.5" fill="#ffc68a" opacity="0.82"/>
  <circle cx="244" cy="118" r="2.5" fill="#ffc68a" opacity="0.74"/>
</svg>
